<svg width="354" height="95" viewBox="0 0 354 95" fill="none" xmlns="http://www.w3.org/2000/svg">
  <path fill-rule="evenodd" clip-rule="evenodd"
    d="M37.2491 21.1311L4.89472 29.7894C2.00756 30.5624 0 33.1755 0 36.1608V73.0856C0 75.4417 1.25913 77.6193 3.30192 78.7972L30.5179 94.4909C32.908 95.8693 35.9234 94.3018 36.1641 91.5551L41.9851 25.1001C42.2135 22.4938 39.7793 20.4539 37.2491 21.1311Z"
    fill="#FF6D00" />
  <path fill-rule="evenodd" clip-rule="evenodd"
    d="M51.9283 10.9916L45.0152 90.8499C44.7493 93.9214 48.0148 96.0236 50.6567 94.4821L76.7006 79.2847C78.7424 78.0938 80 75.8921 80 73.5096V3.81299C80 1.30738 77.6486 -0.516629 75.2535 0.131957L56.7936 5.13117C54.1139 5.85691 52.1701 8.19877 51.9283 10.9916Z"
    fill="#FF5722" />
  <path class="main" fill='white' fill-rule="evenodd" clip-rule="evenodd"
    d="M141.828 40.1022C135.082 40.1022 129.836 45.227 129.836 52.7741C129.836 60.5074 134.989 65.5387 141.828 65.5387C148.199 65.5387 153.54 61.1598 153.54 52.8672C153.54 44.6676 148.199 40.1022 141.828 40.1022ZM166 6V75.8813H154.383V70.1976C151.29 74.5768 145.857 77 139.485 77C126.557 77 117 66.7505 117 52.8672C117 38.9839 126.557 28.7353 139.485 28.7353C145.388 28.7353 149.979 30.5982 153.352 34.2324V9.93294L166 6Z" />
  <path class="main" fill='white' fill-rule="evenodd" clip-rule="evenodd"
    d="M205.754 47.3676C205.66 41.7159 201.266 38.1029 195.751 38.1029C190.422 38.1029 186.122 41.7159 184.72 47.3676H205.754ZM184.72 56.1688C186.215 62.0056 190.983 65.248 197.714 65.248C202.295 65.248 206.596 63.6729 210.615 60.616L215.85 69.1391C210.334 73.6785 204.165 75.9949 197.34 75.9949C183.038 76.2721 171.725 65.248 172.005 51.9996C171.725 38.7516 182.85 27.7267 196.219 28.0052C209.025 28.0052 218 37.3616 218 49.313C218 51.5364 217.72 53.8528 217.159 56.1688H184.72Z" />
  <path class="main" fill='white' fill-rule="evenodd" clip-rule="evenodd"
    d="M269 29L246.103 76H241.897L219 29H232.271L243.953 54.9565L255.635 29H269Z" />
  <path class="main" fill='white' fill-rule="evenodd" clip-rule="evenodd"
    d="M293.953 39.422C286.892 39.422 281.903 44.713 281.903 52.0462C281.903 59.1939 286.892 64.4849 293.953 64.4849C300.826 64.4849 306.003 59.1939 306.003 52.0462C306.003 44.8989 300.826 39.422 293.953 39.422ZM293.953 28.0051C307.603 27.8188 319.277 38.8648 318.995 51.9534C319.277 65.0417 307.509 76.2735 293.859 75.9949C280.209 76.2735 268.723 65.0417 269.005 51.9534C268.723 38.8648 280.303 27.7261 293.953 28.0051Z" />
  <path class="main" fill='white' fill-rule="evenodd" clip-rule="evenodd"
    d="M354 75.8783C351.03 76.6258 348.154 77 345.371 77C333.773 77 327 71.2075 327 59.6235V18.9433L339.525 15V29.635H352.515V40.2849H339.525V58.5022C339.525 63.7339 342.123 65.6955 348.062 65.6955C348.805 65.6955 350.753 65.6022 354 65.3222V75.8783Z" />
  <path class="main" fill='white' fill-rule="evenodd" clip-rule="evenodd" d="M280 22H308V12H280V22Z" />
</svg>